<svg width="16" height="14" viewBox="0 0 16 14" fill="none" xmlns="http://www.w3.org/2000/svg">
<path d="M11.8656 11.3055C12.2858 11.3055 12.635 11.1799 12.9131 10.9287C13.1912 10.6774 13.3364 10.3006 13.3488 9.79812C13.3611 9.37102 13.2221 9.01301 12.9316 8.72409C12.6412 8.43517 12.2858 8.29071 11.8656 8.29071C11.4453 8.29071 11.0931 8.43517 10.8088 8.72409C10.5245 9.01301 10.3824 9.37102 10.3824 9.79812C10.3824 10.2252 10.5245 10.5832 10.8088 10.8721C11.0931 11.1611 11.4453 11.3055 11.8656 11.3055ZM14.7578 13.7927L13.3859 12.3984C13.1634 12.5366 12.9255 12.6402 12.6721 12.7093C12.4187 12.7784 12.1499 12.8129 11.8656 12.8129C11.0498 12.8129 10.3515 12.5177 9.77057 11.9273C9.18965 11.3369 8.89919 10.6272 8.89919 9.79812C8.89919 8.96904 9.18965 8.25931 9.77057 7.66891C10.3515 7.07851 11.0498 6.78331 11.8656 6.78331C12.6813 6.78331 13.3797 7.07851 13.9606 7.66891C14.5415 8.25931 14.832 8.96904 14.832 9.79812C14.832 10.087 14.798 10.3603 14.73 10.6178C14.662 10.8753 14.5601 11.1171 14.4241 11.3432L15.7961 12.7375C15.932 12.8757 16 13.0516 16 13.2651C16 13.4787 15.932 13.6546 15.7961 13.7927C15.6601 13.9309 15.4871 14 15.2769 14C15.0668 14 14.8938 13.9309 14.7578 13.7927ZM1.4832 12.0592C1.07532 12.0592 0.726149 11.9116 0.435689 11.6164C0.14523 11.3212 0 10.9664 0 10.5518V9.94886C0 9.52176 0.10815 9.12921 0.32445 8.7712C0.540749 8.41319 0.828119 8.13997 1.18656 7.95155C1.95288 7.56214 2.73156 7.27008 3.5226 7.07537C4.31363 6.88066 5.11703 6.78331 5.93279 6.78331C6.15527 6.78331 6.37775 6.79273 6.60023 6.81157C6.82271 6.83042 7.04519 6.8524 7.26767 6.87752C7.51487 6.91521 7.691 7.05025 7.79606 7.28264C7.90112 7.51503 7.89185 7.75684 7.76825 8.00808C7.64465 8.29699 7.55504 8.58905 7.49942 8.88425C7.4438 9.17945 7.41599 9.48407 7.41599 9.79812C7.41599 10.0117 7.43144 10.2252 7.46234 10.4388C7.49324 10.6523 7.53959 10.8659 7.60139 11.0794C7.67555 11.3306 7.64465 11.5568 7.50869 11.7577C7.37273 11.9587 7.18733 12.0592 6.95249 12.0592H1.4832ZM13.3488 3.0148C13.3488 3.84388 13.0583 4.55361 12.4774 5.14401C11.8965 5.73441 11.1981 6.02961 10.3824 6.02961C10.2464 6.02961 10.0734 6.01391 9.86327 5.9825C9.65315 5.9511 9.48011 5.91655 9.34415 5.87887C9.67787 5.4769 9.93434 5.03096 10.1136 4.54105C10.2928 4.05114 10.3824 3.5424 10.3824 3.0148C10.3824 2.48721 10.2928 1.97847 10.1136 1.48856C9.93434 0.998654 9.67787 0.552714 9.34415 0.15074C9.51719 0.0879318 9.69023 0.0471063 9.86327 0.0282638C10.0363 0.00942126 10.2093 0 10.3824 0C11.1981 0 11.8965 0.2952 12.4774 0.885599C13.0583 1.476 13.3488 2.18573 13.3488 3.0148ZM5.93279 6.02961C5.11703 6.02961 4.41869 5.73441 3.83778 5.14401C3.25686 4.55361 2.9664 3.84388 2.9664 3.0148C2.9664 2.18573 3.25686 1.476 3.83778 0.885599C4.41869 0.2952 5.11703 0 5.93279 0C6.74855 0 7.44689 0.2952 8.02781 0.885599C8.60873 1.476 8.89919 2.18573 8.89919 3.0148C8.89919 3.84388 8.60873 4.55361 8.02781 5.14401C7.44689 5.73441 6.74855 6.02961 5.93279 6.02961Z" fill="#2A7B72"/>
</svg>
