<svg width="14" height="16" viewBox="0 0 14 16" fill="none" xmlns="http://www.w3.org/2000/svg">
<path d="M7 16C6.79583 16 6.59167 15.9655 6.3875 15.8965C6.18333 15.8275 6.00104 15.724 5.84063 15.586C4.89271 14.7581 4.05417 13.9508 3.325 13.1643C2.59583 12.3777 1.98698 11.6154 1.49844 10.8771C1.0099 10.1389 0.638021 9.4282 0.382812 8.74515C0.127604 8.0621 0 7.41009 0 6.78913C0 4.71928 0.703646 3.07029 2.11094 1.84217C3.51823 0.614058 5.14792 0 7 0C8.85208 0 10.4818 0.614058 11.8891 1.84217C13.2964 3.07029 14 4.71928 14 6.78913C14 7.41009 13.8724 8.0621 13.6172 8.74515C13.362 9.4282 12.9901 10.1389 12.5016 10.8771C12.013 11.6154 11.4042 12.3777 10.675 13.1643C9.94583 13.9508 9.10729 14.7581 8.15937 15.586C7.99896 15.724 7.81667 15.8275 7.6125 15.8965C7.40833 15.9655 7.20417 16 7 16ZM7 8.27943C7.48125 8.27943 7.89323 8.11729 8.23594 7.79301C8.57865 7.46874 8.75 7.07891 8.75 6.62354C8.75 6.16818 8.57865 5.77835 8.23594 5.45407C7.89323 5.1298 7.48125 4.96766 7 4.96766C6.51875 4.96766 6.10677 5.1298 5.76406 5.45407C5.42135 5.77835 5.25 6.16818 5.25 6.62354C5.25 7.07891 5.42135 7.46874 5.76406 7.79301C6.10677 8.11729 6.51875 8.27943 7 8.27943Z" fill="#2A7B72"/>
</svg>
