<svg width="16" height="16" viewBox="0 0 16 16" fill="none" xmlns="http://www.w3.org/2000/svg">
<g clip-path="url(#clip0_2243_1824)">
<path d="M2.37605 13.6C2.14841 13.6 1.9576 13.5233 1.80361 13.37C1.64962 13.2167 1.57262 13.0267 1.57262 12.8C1.57262 12.5733 1.64962 12.3833 1.80361 12.23C1.9576 12.0767 2.14841 12 2.37605 12H3.17947V6.4C3.17947 5.29333 3.51423 4.31 4.18375 3.45C4.85326 2.59 5.72364 2.02667 6.79487 1.76V1.2C6.79487 0.866667 6.91203 0.583333 7.14636 0.35C7.3807 0.116667 7.66524 0 8 0C8.33476 0 8.6193 0.116667 8.85364 0.35C9.08797 0.583333 9.20513 0.866667 9.20513 1.2V1.76C10.2764 2.02667 11.1467 2.59 11.8163 3.45C12.4858 4.31 12.8205 5.29333 12.8205 6.4V12H13.624C13.8516 12 14.0424 12.0767 14.1964 12.23C14.3504 12.3833 14.4274 12.5733 14.4274 12.8C14.4274 13.0267 14.3504 13.2167 14.1964 13.37C14.0424 13.5233 13.8516 13.6 13.624 13.6H2.37605ZM8 16C7.55812 16 7.17984 15.8433 6.86517 15.53C6.55049 15.2167 6.39316 14.84 6.39316 14.4H9.60684C9.60684 14.84 9.44951 15.2167 9.13483 15.53C8.82016 15.8433 8.44188 16 8 16ZM0.769202 6.4C0.541566 6.4 0.350753 6.31333 0.196764 6.14C0.0427748 5.96667 -0.0208295 5.76667 0.00595127 5.54C0.113074 4.54 0.394272 3.61 0.849544 2.75C1.30482 1.89 1.8873 1.14 2.59699 0.5C2.77106 0.353333 2.96857 0.286667 3.18951 0.3C3.41045 0.313333 3.58787 0.413333 3.72178 0.6C3.85568 0.786667 3.90924 0.986667 3.88246 1.2C3.85568 1.41333 3.75525 1.6 3.58118 1.76C3.05895 2.25333 2.63046 2.82667 2.2957 3.48C1.96094 4.13333 1.74 4.84 1.63288 5.6C1.6061 5.82667 1.51237 6.01667 1.35168 6.17C1.191 6.32333 0.996838 6.4 0.769202 6.4ZM15.2308 6.4C15.0032 6.4 14.809 6.32333 14.6483 6.17C14.4876 6.01667 14.3939 5.82667 14.3671 5.6C14.26 4.84 14.0391 4.13333 13.7043 3.48C13.3695 2.82667 12.941 2.25333 12.4188 1.76C12.2447 1.6 12.1443 1.41333 12.1175 1.2C12.0908 0.986667 12.1443 0.786667 12.2782 0.6C12.4121 0.413333 12.5895 0.313333 12.8105 0.3C13.0314 0.286667 13.2289 0.353333 13.403 0.5C14.1127 1.14 14.6952 1.89 15.1505 2.75C15.6057 3.61 15.8869 4.54 15.994 5.54C16.0208 5.76667 15.9572 5.96667 15.8032 6.14C15.6492 6.31333 15.4584 6.4 15.2308 6.4Z" fill="#2A7B72"/>
</g>
<defs>
<clipPath id="clip0_2243_1824">
<rect width="16" height="16" fill="white"/>
</clipPath>
</defs>
</svg>
