<svg width="16" height="16" viewBox="0 0 16 16" fill="none" xmlns="http://www.w3.org/2000/svg">
<g clip-path="url(#clip0_2243_602)">
<path d="M8.00122 7.99707C6.90122 7.99707 5.95955 7.6054 5.17622 6.82207C4.39289 6.03874 4.00122 5.09707 4.00122 3.99707C4.00122 2.89707 4.39289 1.9554 5.17622 1.17207C5.95955 0.388737 6.90122 -0.00292969 8.00122 -0.00292969C9.10122 -0.00292969 10.0429 0.388737 10.8262 1.17207C11.6096 1.9554 12.0012 2.89707 12.0012 3.99707C12.0012 5.09707 11.6096 6.03874 10.8262 6.82207C10.0429 7.6054 9.10122 7.99707 8.00122 7.99707ZM0.0012207 13.9971V13.1971C0.0012207 12.6304 0.147054 12.1096 0.438721 11.6346C0.730387 11.1596 1.11789 10.7971 1.60122 10.5471C2.63455 10.0304 3.68455 9.6429 4.75122 9.38457C5.81789 9.12624 6.90122 8.99707 8.00122 8.99707C9.10122 8.99707 10.1846 9.12624 11.2512 9.38457C12.3179 9.6429 13.3679 10.0304 14.4012 10.5471C14.8846 10.7971 15.2721 11.1596 15.5637 11.6346C15.8554 12.1096 16.0012 12.6304 16.0012 13.1971V13.9971C16.0012 14.5471 15.8054 15.0179 15.4137 15.4096C15.0221 15.8012 14.5512 15.9971 14.0012 15.9971H2.00122C1.45122 15.9971 0.980387 15.8012 0.588721 15.4096C0.197054 15.0179 0.0012207 14.5471 0.0012207 13.9971Z" fill="#2A7B72"/>
</g>
<defs>
<clipPath id="clip0_2243_602">
<rect width="16" height="16" fill="white"/>
</clipPath>
</defs>
</svg>
